<?xml version="1.0" encoding="utf-8"?>
<!-- Generator: Adobe Illustrator 21.0.0, SVG Export Plug-In . SVG Version: 6.00 Build 0)  -->
<svg version="1.1" id="Layer_1" xmlns="http://www.w3.org/2000/svg" xmlns:xlink="http://www.w3.org/1999/xlink" x="0px" y="0px"
	 viewBox="0 0 40 42.5" style="enable-background:new 0 0 40 42.5;" xml:space="preserve">
<style type="text/css">
	.st0{fill:#FFFFFF;}
	.st1{fill:#F79520;}
	.st2{display:none;fill:none;}
	.st3{fill:#8CC640;}
	.st4{fill:#0F75BC;}
	.st5{fill:#A0DCEE;}
	.st6{fill:#25A9E1;}
</style>
<path id="XMLID_36_" class="st0" d="M27.5,25.5c-0.1,0.2-0.2,0.5-0.4,0.7c-1-1.1-2.8-1.1-3.2,0.7c-0.7,3.6,1,11,2,12.2
	c0,0,6.4-1.2,10-7.7c3.3-6,1.6-13.3,2.1-14.3C37.5,18.2,30.8,19.5,27.5,25.5"/>
<path id="XMLID_30_" class="st1" d="M27,27.5c-0.1,0.2-0.2,0.4-0.3,0.6c-0.9-1-2.3-0.9-2.6,0.6c-0.6,2.9,0.9,9,1.7,9.9
	c0,0,5.2-0.8,8.1-6.3c2.7-5,1.3-11,1.8-11.8C35.2,21.5,29.8,22.6,27,27.5"/>
<path id="XMLID_3_" class="st2" d="M13.6,26.4c0.1,0.3,0.3,0.6,0.4,0.9c-1.8,0.4-3,2.5-1.4,4.3c3,3.5,11.4,7,13.2,6.7
	c0,0-1-7.1-6.7-11.5c-2.1-1.7-4.4-2.4-6.5-2.8C13,24.8,13.2,25.6,13.6,26.4"/>
<path id="XMLID_24_" class="st0" d="M21,24.7c-0.1,0.3-0.1,0.7-0.1,1c-1.6-0.8-3.7,0.1-3.4,2.4c0.5,4.4,7.8,9.6,9.4,10.5
	c0,0,4.3-2,5.9-11.2c1.5-8.4-3.2-15.9-2.9-17.3C29.5,11.5,22.5,16.3,21,24.7"/>
<path id="XMLID_12_" class="st0" d="M11.5,35.4c0.2,0.2,0.5,0.4,0.7,0.5C11,37.2,11,39.5,13,40.2c3.7,1.3,11.5,0,12.8-1.1
	c0,0-1.2-8.8-8.1-14.2c-6.3-4.9-13.9-3.4-15-4.2C3.9,21.5,5.2,30.5,11.5,35.4"/>
<path id="XMLID_21_" class="st3" d="M21.1,26.8C21,27.1,21,27.3,21,27.6c-1.3-0.7-3,0-2.8,1.9c0.4,3.7,6.6,8.1,7.8,8.8
	c0,0,3.4-1.6,4.8-9.2c1.3-6.9-2.4-13.2-2.2-14.4C28.4,16.1,22.5,19.9,21.1,26.8"/>
<path id="XMLID_15_" class="st0" d="M11.6,24.4c0.2,0.4,0.4,0.8,0.5,1.1c-2.2,0.4-3.6,3-1.7,5.2c3.6,4.2,13.9,8.3,16,8
	c0,0,3.9-9.9-1-20.8C20.9,7.9,11,3.8,10.2,2.1C11,3.8,7.1,14.4,11.6,24.4"/>
<g>
	<path class="st4" d="M26,38.4c0-0.1,3.2-8.4-0.8-17.3C21.5,12.8,13.3,9.4,12.6,8c0.6,1.3-2,8.6,0.3,16.1c2,0.4,4.3,1.1,6.5,2.8
		C24.9,31.3,26,38.3,26,38.4z"/>
	<path class="st5" d="M26,38.4c-1.8,0.2-10.2-3.3-13.2-6.7c-1.6-1.8-0.4-3.9,1.4-4.3c-0.2-0.3-0.3-0.6-0.4-0.9
		c-0.3-0.8-0.6-1.6-0.9-2.4c-3-0.6-5.4-0.3-5.9-0.7c0.9,0.7,2,8.1,7.2,12.1c0.2,0.2,0.4,0.3,0.6,0.4c-1,1-1,3,0.6,3.6
		C18.2,40.5,24.9,39.4,26,38.4L26,38.4L26,38.4z"/>
	<path class="st6" d="M14,27.3c-1.8,0.4-3,2.5-1.4,4.3c3,3.5,11.4,7,13.2,6.7l0,0c0-0.1-1-7.1-6.7-11.5c-2.1-1.7-4.4-2.4-6.5-2.8
		c0.2,0.8,0.5,1.6,0.9,2.4C13.8,26.7,14,27,14,27.3z"/>
</g>
</svg>
